<svg width="36" height="36" viewBox="0 0 36 36" fill="none" xmlns="http://www.w3.org/2000/svg">
<path d="M6.63982 30.6011L4.11307 2.25H31.8871L29.3569 30.5966L17.9832 33.75L6.63982 30.6011Z" fill="#1572B6"/>
<path d="M18.0001 31.3402L27.1913 28.7921L29.3536 4.5686H18.0001V31.3402Z" fill="#33A9DC"/>
<path d="M18.0001 14.8399H22.6013L22.9186 11.2793H18.0001V7.80188H18.0124H26.7188L26.6356 8.7345L25.7817 18.3173H18.0001V14.8399Z" fill="white"/>
<path d="M18.0214 23.8703L18.0057 23.8748L14.1334 22.8285L13.8859 20.0554H12.0038H10.3951L10.8822 25.515L18.0045 27.4928L18.0214 27.4883V23.8703Z" fill="#EBEBEB"/>
<path d="M22.3054 18.1699L21.8869 22.8263L18.0091 23.8725V27.4905L25.1371 25.515L25.1899 24.9278L25.7941 18.1699H22.3054Z" fill="white"/>
<path d="M18.0124 7.80188V9.96188V11.2703V11.2793H9.62445H9.6132L9.54345 10.4974L9.38483 8.7345L9.30157 7.80188H18.0124Z" fill="#EBEBEB"/>
<path d="M18.0001 14.8398V16.9998V18.3082V18.3172H14.1874H14.1762L14.1064 17.5353L13.9489 15.7725L13.8657 14.8398H18.0001Z" fill="#EBEBEB"/>
</svg>
