<svg width="36" height="36" viewBox="0 0 36 36" fill="none" xmlns="http://www.w3.org/2000/svg">
<path d="M33.7501 2.25H2.25006V33.75H33.7501V2.25Z" fill="#FFCA28"/>
<path d="M21.3751 28.4489L23.6942 26.9142C23.876 27.4852 25.027 28.8414 26.4809 28.8414C27.9347 28.8414 28.6097 28.0474 28.6097 27.5209C28.6097 26.0863 27.1252 25.5805 26.4121 25.3376C26.2958 25.298 26.2002 25.2654 26.1347 25.2369C26.1011 25.2223 26.0503 25.2028 25.9852 25.1779C25.1922 24.875 22.2664 23.7572 22.2664 20.517C22.2664 16.9481 25.7106 16.5377 26.4895 16.5377C26.999 16.5377 29.4491 16.6002 30.6692 18.8931L28.4192 20.4635C27.926 19.4642 27.1065 19.1341 26.602 19.1341C25.3559 19.1341 25.0962 20.0476 25.0962 20.4635C25.0962 21.6304 26.4502 22.1534 27.5933 22.5949C27.8924 22.7105 28.177 22.8204 28.4192 22.9349C29.6654 23.5237 31.5001 24.4874 31.5001 27.5209C31.5001 29.0403 30.2257 31.5002 27.0174 31.5002C22.7077 31.5002 21.5654 28.9128 21.3751 28.4489Z" fill="#3E3E3E"/>
<path d="M10.1251 28.7536L12.5423 27.2197C12.7317 27.7904 13.4678 28.8428 14.5356 28.8428C15.6036 28.8428 16.1502 27.7459 16.1502 27.2197V16.8752H19.123V27.2197C19.1712 28.6466 18.3799 31.5002 14.8874 31.5002C11.6764 31.5002 10.3415 29.5919 10.1251 28.7536Z" fill="#3E3E3E"/>
</svg>
