<svg width="94" height="101" viewBox="0 0 94 101" fill="none" xmlns="http://www.w3.org/2000/svg">
<path d="M47 54H45.25V55.0104L46.125 55.5155L47 54ZM48.75 27C48.75 26.0335 47.9665 25.25 47 25.25C46.0335 25.25 45.25 26.0335 45.25 27H48.75ZM67.7756 68.0155C68.6126 68.4988 69.6829 68.212 70.1662 67.375C70.6494 66.538 70.3626 65.4677 69.5256 64.9845L67.7756 68.0155ZM90.25 54C90.25 77.8863 70.8863 97.25 47 97.25V100.75C72.8193 100.75 93.75 79.8193 93.75 54H90.25ZM47 97.25C23.1137 97.25 3.75 77.8863 3.75 54H0.25C0.25 79.8193 21.1807 100.75 47 100.75V97.25ZM3.75 54C3.75 30.1137 23.1137 10.75 47 10.75V7.25C21.1807 7.25 0.25 28.1807 0.25 54H3.75ZM47 10.75C70.8863 10.75 90.25 30.1137 90.25 54H93.75C93.75 28.1807 72.8193 7.25 47 7.25V10.75ZM87.25 54C87.25 76.2295 69.2295 94.25 47 94.25V97.75C71.1625 97.75 90.75 78.1625 90.75 54H87.25ZM47 94.25C24.7705 94.25 6.75 76.2295 6.75 54H3.25C3.25 78.1625 22.8375 97.75 47 97.75V94.25ZM6.75 54C6.75 31.7705 24.7705 13.75 47 13.75V10.25C22.8375 10.25 3.25 29.8375 3.25 54H6.75ZM47 13.75C69.2295 13.75 87.25 31.7705 87.25 54H90.75C90.75 29.8375 71.1625 10.25 47 10.25V13.75ZM48.75 54V27H45.25V54H48.75ZM46.125 55.5155L67.7756 68.0155L69.5256 64.9845L47.875 52.4845L46.125 55.5155ZM50.25 7C50.25 8.79493 48.7949 10.25 47 10.25V13.75C50.7279 13.75 53.75 10.7279 53.75 7H50.25ZM47 10.25C45.2051 10.25 43.75 8.79493 43.75 7H40.25C40.25 10.7279 43.2721 13.75 47 13.75V10.25ZM43.75 7C43.75 5.20507 45.2051 3.75 47 3.75V0.25C43.2721 0.25 40.25 3.27208 40.25 7H43.75ZM47 3.75C48.7949 3.75 50.25 5.20507 50.25 7H53.75C53.75 3.27208 50.7279 0.25 47 0.25V3.75ZM26.25 14C26.25 16.3472 24.3472 18.25 22 18.25V21.75C26.2802 21.75 29.75 18.2802 29.75 14H26.25ZM22 18.25C19.6528 18.25 17.75 16.3472 17.75 14H14.25C14.25 18.2802 17.7198 21.75 22 21.75V18.25ZM17.75 14C17.75 11.6528 19.6528 9.75 22 9.75V6.25C17.7198 6.25 14.25 9.71979 14.25 14H17.75ZM22 9.75C24.3472 9.75 26.25 11.6528 26.25 14H29.75C29.75 9.71979 26.2802 6.25 22 6.25V9.75ZM76.25 14C76.25 16.3472 74.3472 18.25 72 18.25V21.75C76.2802 21.75 79.75 18.2802 79.75 14H76.25ZM72 18.25C69.6528 18.25 67.75 16.3472 67.75 14H64.25C64.25 18.2802 67.7198 21.75 72 21.75V18.25ZM67.75 14C67.75 11.6528 69.6528 9.75 72 9.75V6.25C67.7198 6.25 64.25 9.71979 64.25 14H67.75ZM72 9.75C74.3472 9.75 76.25 11.6528 76.25 14H79.75C79.75 9.71979 76.2802 6.25 72 6.25V9.75ZM45.25 15V21H48.75V15H45.25ZM86 52.25H80V55.75H86V52.25ZM48.75 93V87H45.25V93H48.75ZM8 55.75H14V52.25H8V55.75ZM73.7626 24.7626L69.7626 28.7626L72.2374 31.2374L76.2374 27.2374L73.7626 24.7626ZM76.2374 80.7626L72.2374 76.7626L69.7626 79.2374L73.7626 83.2374L76.2374 80.7626ZM20.2374 83.2374L24.2374 79.2374L21.7626 76.7626L17.7626 80.7626L20.2374 83.2374ZM17.7626 27.2374L21.7626 31.2374L24.2374 28.7626L20.2374 24.7626L17.7626 27.2374Z" fill="white"/>
</svg>
