<svg width="26" height="40" viewBox="0 0 26 40" fill="none" xmlns="http://www.w3.org/2000/svg">
<path fill-rule="evenodd" clip-rule="evenodd" d="M14.5596 0.877603L14.3524 0.601595L14.3516 0.600541L14.3514 0.600201C14.1961 0.393333 13.9729 0.23548 13.7159 0.133699C13.5894 0.0833516 13.4528 0.0459348 13.309 0.0237214C13.2056 0.00762019 13.1013 -0.000179043 12.9974 3.11763e-06C12.8823 9.22495e-05 12.7666 0.00999065 12.6523 0.0301419C12.5443 0.0490599 12.4406 0.0765975 12.3424 0.111764C12.061 0.212097 11.8155 0.377831 11.6486 0.600201L0.20925 15.8422C-0.221509 16.4161 0.0341221 17.15 0.780218 17.4814C1.52631 17.8128 2.48034 17.6161 2.9111 17.0422L11.4402 5.67786V38.8C11.4402 39.4627 12.1386 40 13.0001 40C13.8617 40 14.5601 39.4627 14.5601 38.8V14.8005H14.5596V0.877603ZM17.6354 9.77582L23.0889 17.0422C23.5197 17.6161 24.4737 17.8128 25.2198 17.4814C25.9659 17.15 26.2215 16.4161 25.7908 15.8422L17.6354 4.97584V9.77582Z" fill="url(#paint0_linear_15_103)" fill-opacity="0.7"/>
<defs>
<linearGradient id="paint0_linear_15_103" x1="13" y1="0" x2="13" y2="40" gradientUnits="userSpaceOnUse">
<stop stop-color="#903BD1"/>
<stop offset="1" stop-color="#903BD1" stop-opacity="0.5"/>
</linearGradient>
</defs>
</svg>
