<svg width="60" height="60" viewBox="0 0 60 60" fill="none" xmlns="http://www.w3.org/2000/svg">
<path d="M18.5156 45.8203V29.1797L8.90625 21.7969V42.3047C8.90625 44.6484 10.0781 45.8203 12.4219 45.8203" fill="#4285F4"/>
<path d="M18.0469 29.0625L30 38.0859L41.9531 29.0625V17.5781L30 26.6016L18.0469 17.5781" fill="#EA4335"/>
<path d="M41.4844 45.8203V29.1797L51.0938 21.7969V42.3047C51.0938 44.6484 49.9219 45.8203 47.5781 45.8203" fill="#34A853"/>
<path d="M8.90625 22.031L18.5156 29.4138V17.9295L15 15.2342C11.8359 12.7732 8.90625 15.2342 8.90625 18.281" fill="#C5221F"/>
<path d="M51.0938 22.031L41.4844 29.4138V17.9295L45 15.2342C48.1641 12.7732 51.0938 15.2342 51.0938 18.281" fill="#FBBC04"/>
</svg>
