<svg width="60" height="60" viewBox="0 0 60 60" fill="none" xmlns="http://www.w3.org/2000/svg">
<path d="M46.5961 13.3024C46.5961 13.3024 50.3981 11.8198 50.0812 15.4203C49.9756 16.9028 49.0252 22.0917 48.2858 27.7042L45.7512 44.3299C45.7512 44.3299 45.54 46.7654 43.6389 47.1891C41.7378 47.6126 38.8864 45.7065 38.3582 45.2829C37.9358 44.9653 30.4374 40.1999 27.797 37.8702C27.0577 37.2348 26.2128 35.9641 27.9026 34.4815L38.992 23.892C40.2593 22.6212 41.5267 19.6561 36.246 23.2566L21.4603 33.3167C21.4603 33.3167 19.7705 34.3756 16.6021 33.4226L9.73728 31.3047C9.73728 31.3047 7.20257 29.7163 11.5327 28.1277C22.094 23.1506 35.0843 18.0676 46.5961 13.3024Z" fill="#27A7E7"/>
</svg>
