<svg width="322" height="90" viewBox="0 0 322 90" fill="none" xmlns="http://www.w3.org/2000/svg">
<path d="M6.81016 9.42977L0 6.69057V5.65157L6.81016 2.91237V3.8884L0.407044 6.42295V5.91919L6.81016 8.45374V9.42977Z" fill="#903BD1"/>
<path d="M13.6547 3.33741C14.3226 3.33741 14.9071 3.4686 15.4081 3.73098C15.9195 3.98286 16.3161 4.37117 16.5979 4.89592C16.8902 5.42068 17.0363 6.08186 17.0363 6.87948V11.681H15.9247V6.98968C15.9247 6.11859 15.7056 5.46266 15.2672 5.02187C14.8393 4.57058 14.2339 4.34494 13.4512 4.34494C12.8667 4.34494 12.3553 4.46563 11.9169 4.70701C11.489 4.9379 11.155 5.27899 10.915 5.73028C10.6853 6.17107 10.5705 6.70631 10.5705 7.33602V11.681H9.459V0H10.5705V5.68305L10.3514 5.258C10.6123 4.65979 11.0298 4.19276 11.6038 3.85692C12.1778 3.51058 12.8615 3.33741 13.6547 3.33741Z" fill="#903BD1"/>
<path d="M23.5299 11.7597C22.6741 11.7597 21.9226 11.5812 21.2755 11.2244C20.6284 10.8571 20.1222 10.3586 19.7569 9.72888C19.3916 9.08868 19.209 8.35928 19.209 7.54067C19.209 6.72206 19.3812 5.9979 19.7256 5.3682C20.0805 4.7385 20.5606 4.24523 21.1659 3.8884C21.7817 3.52108 22.4705 3.33741 23.2324 3.33741C24.0048 3.33741 24.6884 3.51583 25.2833 3.87266C25.8887 4.219 26.3635 4.71226 26.708 5.35246C27.0524 5.98216 27.2246 6.71156 27.2246 7.54067C27.2246 7.59314 27.2194 7.65087 27.2089 7.71384C27.2089 7.76631 27.2089 7.82403 27.2089 7.887H20.0544V7.05265H26.614L26.1757 7.38324C26.1757 6.78503 26.0452 6.25503 25.7843 5.79325C25.5338 5.32097 25.1894 4.95365 24.751 4.69127C24.3127 4.4289 23.8065 4.29771 23.2324 4.29771C22.6688 4.29771 22.1626 4.4289 21.7139 4.69127C21.2651 4.95365 20.9154 5.32097 20.6649 5.79325C20.4144 6.26552 20.2892 6.80602 20.2892 7.41473V7.5879C20.2892 8.2176 20.4249 8.77383 20.6962 9.2566C20.978 9.72888 21.3642 10.1015 21.8548 10.3743C22.3557 10.6367 22.9245 10.7679 23.5612 10.7679C24.0622 10.7679 24.5266 10.6787 24.9545 10.5003C25.3929 10.3218 25.7686 10.049 26.0817 9.68165L26.708 10.4058C26.3427 10.8466 25.8834 11.1824 25.3303 11.4133C24.7876 11.6442 24.1874 11.7597 23.5299 11.7597Z" fill="#903BD1"/>
<path d="M34.4084 11.681V9.85482L34.3614 9.55571V6.50166C34.3614 5.7985 34.1631 5.258 33.7665 4.88018C33.3804 4.50236 32.8011 4.31345 32.0288 4.31345C31.4965 4.31345 30.9903 4.40266 30.5102 4.58107C30.0301 4.75949 29.623 4.99563 29.2891 5.28949L28.7881 4.45513C29.2056 4.0983 29.7065 3.82543 30.291 3.63652C30.8755 3.43712 31.4913 3.33741 32.1384 3.33741C33.2029 3.33741 34.0222 3.60504 34.5963 4.14028C35.1808 4.66503 35.473 5.4679 35.473 6.54889V11.681H34.4084ZM31.5748 11.7597C30.959 11.7597 30.4215 11.66 29.9622 11.4606C29.5134 11.2507 29.169 10.9673 28.929 10.6105C28.6889 10.2431 28.5689 9.82333 28.5689 9.35106C28.5689 8.92076 28.668 8.53245 28.8664 8.18611C29.0751 7.82928 29.4091 7.54592 29.8683 7.33602C30.338 7.11562 30.9642 7.00542 31.747 7.00542H34.5806V7.83978H31.7783C30.9851 7.83978 30.4319 7.98146 30.1188 8.26482C29.8161 8.54819 29.6648 8.89977 29.6648 9.31957C29.6648 9.79185 29.8474 10.1697 30.2127 10.453C30.578 10.7364 31.0894 10.8781 31.747 10.8781C32.3732 10.8781 32.9107 10.7364 33.3595 10.453C33.8187 10.1592 34.1527 9.73937 34.3614 9.19363L34.6119 9.96502C34.4032 10.5108 34.0379 10.9463 33.516 11.2716C33.0046 11.597 32.3575 11.7597 31.5748 11.7597Z" fill="#903BD1"/>
<path d="M41.7641 11.7597C40.9813 11.7597 40.2768 11.5812 39.6506 11.2244C39.0348 10.8676 38.5495 10.3743 38.1946 9.74462C37.8397 9.10443 37.6623 8.36977 37.6623 7.54067C37.6623 6.70107 37.8397 5.96642 38.1946 5.33672C38.5495 4.70701 39.0348 4.219 39.6506 3.87266C40.2768 3.51583 40.9813 3.33741 41.7641 3.33741C42.4842 3.33741 43.1261 3.50009 43.6897 3.82543C44.2637 4.15078 44.7177 4.6283 45.0517 5.258C45.3961 5.87721 45.5684 6.6381 45.5684 7.54067C45.5684 8.43275 45.4014 9.19363 45.0674 9.82333C44.7334 10.453 44.2794 10.9358 43.7053 11.2716C43.1417 11.597 42.4947 11.7597 41.7641 11.7597ZM41.8423 10.7679C42.4268 10.7679 42.9487 10.6367 43.4079 10.3743C43.8776 10.1015 44.2429 9.72363 44.5038 9.24086C44.7751 8.74759 44.9108 8.18086 44.9108 7.54067C44.9108 6.88998 44.7751 6.32325 44.5038 5.84048C44.2429 5.35771 43.8776 4.98513 43.4079 4.72276C42.9487 4.44989 42.4268 4.31345 41.8423 4.31345C41.2683 4.31345 40.7517 4.44989 40.2924 4.72276C39.8332 4.98513 39.4679 5.35771 39.1966 5.84048C38.9252 6.32325 38.7895 6.88998 38.7895 7.54067C38.7895 8.18086 38.9252 8.74759 39.1966 9.24086C39.4679 9.72363 39.8332 10.1015 40.2924 10.3743C40.7517 10.6367 41.2683 10.7679 41.8423 10.7679ZM44.9421 11.681V9.19363L45.0517 7.52493L44.8952 5.85622V0H46.0067V11.681H44.9421Z" fill="#903BD1"/>
<path d="M52.5935 11.7597C51.7377 11.7597 50.9862 11.5812 50.3391 11.2244C49.692 10.8571 49.1858 10.3586 48.8205 9.72888C48.4553 9.08868 48.2726 8.35928 48.2726 7.54067C48.2726 6.72206 48.4448 5.9979 48.7892 5.3682C49.1441 4.7385 49.6242 4.24523 50.2295 3.8884C50.8453 3.52108 51.5342 3.33741 52.2961 3.33741C53.0684 3.33741 53.752 3.51583 54.347 3.87266C54.9523 4.219 55.4272 4.71226 55.7716 5.35246C56.116 5.98216 56.2882 6.71156 56.2882 7.54067C56.2882 7.59314 56.283 7.65087 56.2726 7.71384C56.2726 7.76631 56.2726 7.82403 56.2726 7.887H49.118V7.05265H55.6777L55.2393 7.38324C55.2393 6.78503 55.1089 6.25503 54.8479 5.79325C54.5974 5.32097 54.253 4.95365 53.8147 4.69127C53.3763 4.4289 52.8701 4.29771 52.2961 4.29771C51.7325 4.29771 51.2263 4.4289 50.7775 4.69127C50.3287 4.95365 49.9791 5.32097 49.7286 5.79325C49.4781 6.26552 49.3528 6.80602 49.3528 7.41473V7.5879C49.3528 8.2176 49.4885 8.77383 49.7599 9.2566C50.0417 9.72888 50.4278 10.1015 50.9184 10.3743C51.4194 10.6367 51.9882 10.7679 52.6248 10.7679C53.1258 10.7679 53.5903 10.6787 54.0182 10.5003C54.4565 10.3218 54.8323 10.049 55.1454 9.68165L55.7716 10.4058C55.4063 10.8466 54.9471 11.1824 54.3939 11.4133C53.8512 11.6442 53.2511 11.7597 52.5935 11.7597Z" fill="#903BD1"/>
<path d="M58.5507 11.681V3.41613H59.6153V5.66731L59.5057 5.27375C59.7353 4.64404 60.1215 4.16652 60.6642 3.84118C61.2069 3.50534 61.8801 3.33741 62.6838 3.33741V4.42365C62.642 4.42365 62.6003 4.42365 62.5585 4.42365C62.5168 4.41315 62.475 4.40791 62.4333 4.40791C61.567 4.40791 60.8886 4.67553 60.3981 5.21078C59.9075 5.73553 59.6622 6.48592 59.6622 7.46196V11.681H58.5507Z" fill="#903BD1"/>
<path d="M64.3803 9.42977V8.45374L70.7834 5.91919V6.42295L64.3803 3.8884V2.91237L71.1905 5.65157V6.69057L64.3803 9.42977Z" fill="#903BD1"/>
<path d="M39.5889 28.616L32.7788 25.8768V24.8378L39.5889 22.0986V23.0746L33.1858 25.6091V25.1054L39.5889 27.6399V28.616Z" fill="#7E7E7E"/>
<path d="M45.5098 30.9459C44.727 30.9459 44.0225 30.7674 43.3963 30.4106C42.7805 30.0538 42.2952 29.5605 41.9403 28.9308C41.5854 28.2906 41.408 27.556 41.408 26.7269C41.408 25.8873 41.5854 25.1526 41.9403 24.5229C42.2952 23.8932 42.7805 23.4052 43.3963 23.0589C44.0225 22.702 44.727 22.5236 45.5098 22.5236C46.2299 22.5236 46.8718 22.6863 47.4354 23.0116C48.0094 23.337 48.4634 23.8145 48.7974 24.4442C49.1419 25.0634 49.3141 25.8243 49.3141 26.7269C49.3141 27.6189 49.1471 28.3798 48.8131 29.0095C48.4791 29.6392 48.0251 30.122 47.4511 30.4578C46.8875 30.7832 46.2404 30.9459 45.5098 30.9459ZM45.588 29.9541C46.1725 29.9541 46.6944 29.8229 47.1536 29.5605C47.6233 29.2877 47.9886 28.9098 48.2495 28.4271C48.5209 27.9338 48.6565 27.3671 48.6565 26.7269C48.6565 26.0762 48.5209 25.5094 48.2495 25.0267C47.9886 24.5439 47.6233 24.1713 47.1536 23.909C46.6944 23.6361 46.1725 23.4997 45.588 23.4997C45.014 23.4997 44.4974 23.6361 44.0382 23.909C43.5789 24.1713 43.2136 24.5439 42.9423 25.0267C42.6709 25.5094 42.5352 26.0762 42.5352 26.7269C42.5352 27.3671 42.6709 27.9338 42.9423 28.4271C43.2136 28.9098 43.5789 29.2877 44.0382 29.5605C44.4974 29.8229 45.014 29.9541 45.588 29.9541ZM48.6878 30.8672V28.3798L48.7974 26.7111L48.6409 25.0424V19.1862H49.7524V30.8672H48.6878Z" fill="#3B61D1"/>
<path d="M52.8481 30.8672V22.6023H53.9596V30.8672H52.8481ZM53.4117 20.7762C53.182 20.7762 52.989 20.6975 52.8324 20.5401C52.6758 20.3826 52.5976 20.1937 52.5976 19.9733C52.5976 19.7529 52.6758 19.5693 52.8324 19.4223C52.989 19.2649 53.182 19.1862 53.4117 19.1862C53.6413 19.1862 53.8344 19.2597 53.9909 19.4066C54.1475 19.5535 54.2257 19.7372 54.2257 19.9576C54.2257 20.1885 54.1475 20.3826 53.9909 20.5401C53.8448 20.6975 53.6517 20.7762 53.4117 20.7762Z" fill="#3B61D1"/>
<path d="M59.1659 30.8672L55.5182 22.6023H56.6767L60.027 30.2689H59.479L62.8763 22.6023H63.9722L60.3088 30.8672H59.1659Z" fill="#3B61D1"/>
<path d="M65.0836 28.616V27.6399L71.4867 25.1054V25.6091L65.0836 23.0746V22.0986L71.8937 24.8378V25.8768L65.0836 28.616Z" fill="#7E7E7E"/>
<path d="M81.5362 30.9616C80.8265 30.9616 80.195 30.8462 79.6419 30.6153C79.0887 30.3739 78.6504 30.0433 78.3268 29.6235C78.0137 29.2037 77.8572 28.7157 77.8572 28.1594C77.8572 27.6872 77.9615 27.2569 78.1703 26.8686C78.379 26.4697 78.713 26.0814 79.1722 25.7036C79.6419 25.3153 80.2629 24.9112 81.0352 24.4914C81.6928 24.1241 82.2042 23.8093 82.5695 23.5469C82.9452 23.274 83.2113 23.0169 83.3679 22.7755C83.5245 22.5236 83.6027 22.256 83.6027 21.9726C83.6027 21.5633 83.4618 21.2327 83.18 20.9808C82.9087 20.729 82.5173 20.603 82.0059 20.603C81.4527 20.603 81.0248 20.7447 80.7221 21.0281C80.4194 21.3009 80.2681 21.6578 80.2681 22.0986C80.2681 22.319 80.2994 22.5289 80.362 22.7283C80.4351 22.9277 80.5656 23.1481 80.7534 23.3895C80.9517 23.6308 81.2231 23.9352 81.5675 24.3025L87.3601 30.3004L86.7182 31.0403L80.6751 24.7905C80.3099 24.4022 80.0176 24.0664 79.7984 23.783C79.5897 23.4892 79.4436 23.211 79.3601 22.9487C79.2766 22.6863 79.2348 22.4082 79.2348 22.1143C79.2348 21.642 79.3444 21.2327 79.5636 20.8864C79.7932 20.5296 80.1168 20.2567 80.5342 20.0678C80.9517 19.8684 81.4423 19.7687 82.0059 19.7687C82.5173 19.7687 82.9609 19.8579 83.3366 20.0363C83.7228 20.2042 84.0202 20.4508 84.229 20.7762C84.4481 21.1015 84.5577 21.4951 84.5577 21.9569C84.5577 22.3557 84.4586 22.7283 84.2603 23.0746C84.0724 23.4209 83.7593 23.762 83.3209 24.0979C82.8826 24.4232 82.2877 24.7905 81.5362 25.1998C80.8787 25.5672 80.3568 25.903 79.9706 26.2074C79.5949 26.5117 79.3288 26.8108 79.1722 27.1047C79.0157 27.3881 78.9374 27.7029 78.9374 28.0492C78.9374 28.4481 79.047 28.7996 79.2662 29.104C79.4958 29.3978 79.8089 29.6287 80.2055 29.7967C80.6125 29.9541 81.077 30.0328 81.5988 30.0328C82.3294 30.0328 82.9817 29.8806 83.5558 29.5763C84.1298 29.2719 84.6099 28.8101 84.9961 28.1909C85.3927 27.5717 85.6797 26.7951 85.8571 25.861L86.7495 26.1444C86.5512 27.1939 86.212 28.0755 85.7319 28.7891C85.2518 29.5028 84.6569 30.0433 83.9472 30.4106C83.2374 30.7779 82.4338 30.9616 81.5362 30.9616Z" fill="#DC5151"/>
<path d="M89.1126 30.8672V19.1862H90.2242V30.8672H89.1126Z" fill="#DC5151"/>
<path d="M95.9617 30.9459C95.1893 30.9459 94.5944 30.736 94.1769 30.3162C93.7595 29.8964 93.5507 29.3034 93.5507 28.5373V20.7762H94.6623V28.4743C94.6623 28.9571 94.7823 29.3296 95.0223 29.592C95.2728 29.8544 95.6277 29.9856 96.0869 29.9856C96.5775 29.9856 96.9845 29.8439 97.308 29.5605L97.6994 30.3634C97.4803 30.5628 97.2141 30.7097 96.901 30.8042C96.5983 30.8986 96.2852 30.9459 95.9617 30.9459ZM92.0791 23.5311V22.6023H97.1671V23.5311H92.0791Z" fill="#DC5151"/>
<path d="M99.8325 24.2395C99.6029 24.2395 99.4046 24.1556 99.2376 23.9877C99.081 23.8197 99.0028 23.6151 99.0028 23.3737C99.0028 23.1218 99.081 22.9172 99.2376 22.7598C99.4046 22.6023 99.6029 22.5236 99.8325 22.5236C100.062 22.5236 100.255 22.6023 100.412 22.7598C100.579 22.9172 100.662 23.1218 100.662 23.3737C100.662 23.6151 100.579 23.8197 100.412 23.9877C100.255 24.1556 100.062 24.2395 99.8325 24.2395ZM99.0497 33.1656L99.7386 30.2532L99.8638 30.9301C99.6238 30.9301 99.4202 30.8514 99.2532 30.694C99.0967 30.5366 99.0184 30.3319 99.0184 30.08C99.0184 29.8281 99.0967 29.6235 99.2532 29.4661C99.4202 29.3086 99.6185 29.2299 99.8482 29.2299C100.088 29.2299 100.281 29.3139 100.427 29.4818C100.584 29.6497 100.662 29.8491 100.662 30.08C100.662 30.164 100.657 30.2479 100.647 30.3319C100.636 30.4159 100.615 30.5103 100.584 30.6153C100.553 30.7202 100.511 30.8462 100.459 30.9931L99.8012 33.1656H99.0497Z" fill="#DC5151"/>
<path d="M107.236 22.5236C107.904 22.5236 108.489 22.6548 108.99 22.9172C109.501 23.1691 109.898 23.5574 110.179 24.0821C110.472 24.6069 110.618 25.2681 110.618 26.0657V30.8672H109.506V26.1759C109.506 25.3048 109.287 24.6489 108.849 24.2081C108.421 23.7568 107.815 23.5311 107.033 23.5311C106.448 23.5311 105.937 23.6518 105.498 23.8932C105.071 24.1241 104.737 24.4652 104.497 24.9165C104.267 25.3573 104.152 25.8925 104.152 26.5222V30.8672H103.041V19.1862H104.152V24.8693L103.933 24.4442C104.194 23.846 104.611 23.379 105.185 23.0431C105.759 22.6968 106.443 22.5236 107.236 22.5236Z" fill="white"/>
<path d="M117.111 30.9459C116.256 30.9459 115.504 30.7674 114.857 30.4106C114.21 30.0433 113.704 29.5448 113.338 28.9151C112.973 28.2749 112.791 27.5455 112.791 26.7269C112.791 25.9083 112.963 25.1841 113.307 24.5544C113.662 23.9247 114.142 23.4314 114.747 23.0746C115.363 22.7073 116.052 22.5236 116.814 22.5236C117.586 22.5236 118.27 22.702 118.865 23.0589C119.47 23.4052 119.945 23.8985 120.29 24.5387C120.634 25.1684 120.806 25.8978 120.806 26.7269C120.806 26.7793 120.801 26.8371 120.79 26.9C120.79 26.9525 120.79 27.0102 120.79 27.0732H113.636V26.2389H120.196L119.757 26.5694C119.757 25.9712 119.627 25.4412 119.366 24.9794C119.115 24.5072 118.771 24.1398 118.333 23.8775C117.894 23.6151 117.388 23.4839 116.814 23.4839C116.25 23.4839 115.744 23.6151 115.295 23.8775C114.847 24.1398 114.497 24.5072 114.246 24.9794C113.996 25.4517 113.871 25.9922 113.871 26.6009V26.7741C113.871 27.4038 114.006 27.96 114.278 28.4428C114.56 28.9151 114.946 29.2877 115.436 29.5605C115.937 29.8229 116.506 29.9541 117.143 29.9541C117.644 29.9541 118.108 29.8649 118.536 29.6865C118.974 29.508 119.35 29.2352 119.663 28.8679L120.29 29.592C119.924 30.0328 119.465 30.3686 118.912 30.5995C118.369 30.8304 117.769 30.9459 117.111 30.9459Z" fill="white"/>
<path d="M127.99 30.8672V29.041L127.943 28.7419V25.6879C127.943 24.9847 127.745 24.4442 127.348 24.0664C126.962 23.6886 126.383 23.4997 125.61 23.4997C125.078 23.4997 124.572 23.5889 124.092 23.7673C123.612 23.9457 123.205 24.1818 122.871 24.4757L122.37 23.6413C122.787 23.2845 123.288 23.0116 123.873 22.8227C124.457 22.6233 125.073 22.5236 125.72 22.5236C126.784 22.5236 127.604 22.7912 128.178 23.3265C128.762 23.8512 129.055 24.6541 129.055 25.7351V30.8672H127.99ZM125.156 30.9459C124.541 30.9459 124.003 30.8462 123.544 30.6468C123.095 30.4369 122.751 30.1535 122.511 29.7967C122.27 29.4293 122.15 29.0095 122.15 28.5373C122.15 28.107 122.25 27.7186 122.448 27.3723C122.657 27.0155 122.991 26.7321 123.45 26.5222C123.92 26.3018 124.546 26.1916 125.329 26.1916H128.162V27.026H125.36C124.567 27.026 124.013 27.1677 123.7 27.451C123.398 27.7344 123.246 28.086 123.246 28.5058C123.246 28.978 123.429 29.3559 123.794 29.6392C124.16 29.9226 124.671 30.0643 125.329 30.0643C125.955 30.0643 126.492 29.9226 126.941 29.6392C127.4 29.3454 127.734 28.9256 127.943 28.3798L128.193 29.1512C127.985 29.697 127.619 30.1325 127.098 30.4578C126.586 30.7832 125.939 30.9459 125.156 30.9459Z" fill="white"/>
<path d="M135.346 30.9459C134.563 30.9459 133.858 30.7674 133.232 30.4106C132.616 30.0538 132.131 29.5605 131.776 28.9308C131.421 28.2906 131.244 27.556 131.244 26.7269C131.244 25.8873 131.421 25.1526 131.776 24.5229C132.131 23.8932 132.616 23.4052 133.232 23.0589C133.858 22.702 134.563 22.5236 135.346 22.5236C136.066 22.5236 136.708 22.6863 137.271 23.0116C137.845 23.337 138.299 23.8145 138.633 24.4442C138.978 25.0634 139.15 25.8243 139.15 26.7269C139.15 27.6189 138.983 28.3798 138.649 29.0095C138.315 29.6392 137.861 30.122 137.287 30.4578C136.723 30.7832 136.076 30.9459 135.346 30.9459ZM135.424 29.9541C136.008 29.9541 136.53 29.8229 136.989 29.5605C137.459 29.2877 137.824 28.9098 138.085 28.4271C138.357 27.9338 138.492 27.3671 138.492 26.7269C138.492 26.0762 138.357 25.5094 138.085 25.0267C137.824 24.5439 137.459 24.1713 136.989 23.909C136.53 23.6361 136.008 23.4997 135.424 23.4997C134.85 23.4997 134.333 23.6361 133.874 23.909C133.415 24.1713 133.049 24.5439 132.778 25.0267C132.507 25.5094 132.371 26.0762 132.371 26.7269C132.371 27.3671 132.507 27.9338 132.778 28.4271C133.049 28.9098 133.415 29.2877 133.874 29.5605C134.333 29.8229 134.85 29.9541 135.424 29.9541ZM138.524 30.8672V28.3798L138.633 26.7111L138.477 25.0424V19.1862H139.588V30.8672H138.524Z" fill="white"/>
<path d="M146.175 30.9459C145.319 30.9459 144.568 30.7674 143.921 30.4106C143.274 30.0433 142.767 29.5448 142.402 28.9151C142.037 28.2749 141.854 27.5455 141.854 26.7269C141.854 25.9083 142.026 25.1841 142.371 24.5544C142.726 23.9247 143.206 23.4314 143.811 23.0746C144.427 22.7073 145.116 22.5236 145.878 22.5236C146.65 22.5236 147.334 22.702 147.928 23.0589C148.534 23.4052 149.009 23.8985 149.353 24.5387C149.698 25.1684 149.87 25.8978 149.87 26.7269C149.87 26.7793 149.865 26.8371 149.854 26.9C149.854 26.9525 149.854 27.0102 149.854 27.0732H142.7V26.2389H149.259L148.821 26.5694C148.821 25.9712 148.69 25.4412 148.429 24.9794C148.179 24.5072 147.835 24.1398 147.396 23.8775C146.958 23.6151 146.452 23.4839 145.878 23.4839C145.314 23.4839 144.808 23.6151 144.359 23.8775C143.91 24.1398 143.561 24.5072 143.31 24.9794C143.06 25.4517 142.934 25.9922 142.934 26.6009V26.7741C142.934 27.4038 143.07 27.96 143.341 28.4428C143.623 28.9151 144.009 29.2877 144.5 29.5605C145.001 29.8229 145.57 29.9541 146.206 29.9541C146.707 29.9541 147.172 29.8649 147.6 29.6865C148.038 29.508 148.414 29.2352 148.727 28.8679L149.353 29.592C148.988 30.0328 148.529 30.3686 147.975 30.5995C147.433 30.8304 146.833 30.9459 146.175 30.9459Z" fill="white"/>
<path d="M152.132 30.8672V22.6023H153.197V24.8535L153.087 24.4599C153.317 23.8302 153.703 23.3527 154.246 23.0274C154.788 22.6915 155.462 22.5236 156.265 22.5236V23.6098C156.224 23.6098 156.182 23.6098 156.14 23.6098C156.098 23.5994 156.057 23.5941 156.015 23.5941C155.149 23.5941 154.47 23.8617 153.98 24.397C153.489 24.9217 153.244 25.6721 153.244 26.6482V30.8672H152.132Z" fill="white"/>
<path d="M160.762 30.9616C160.052 30.9616 159.421 30.8462 158.867 30.6153C158.314 30.3739 157.876 30.0433 157.552 29.6235C157.239 29.2037 157.083 28.7157 157.083 28.1594C157.083 27.6872 157.187 27.2569 157.396 26.8686C157.605 26.4697 157.939 26.0814 158.398 25.7036C158.867 25.3153 159.488 24.9112 160.261 24.4914C160.918 24.1241 161.43 23.8093 161.795 23.5469C162.171 23.274 162.437 23.0169 162.593 22.7755C162.75 22.5236 162.828 22.256 162.828 21.9726C162.828 21.5633 162.687 21.2327 162.406 20.9808C162.134 20.729 161.743 20.603 161.231 20.603C160.678 20.603 160.25 20.7447 159.948 21.0281C159.645 21.3009 159.494 21.6578 159.494 22.0986C159.494 22.319 159.525 22.5289 159.588 22.7283C159.661 22.9277 159.791 23.1481 159.979 23.3895C160.177 23.6308 160.449 23.9352 160.793 24.3025L166.586 30.3004L165.944 31.0403L159.901 24.7905C159.535 24.4022 159.243 24.0664 159.024 23.783C158.815 23.4892 158.669 23.211 158.586 22.9487C158.502 22.6863 158.46 22.4082 158.46 22.1143C158.46 21.642 158.57 21.2327 158.789 20.8864C159.019 20.5296 159.342 20.2567 159.76 20.0678C160.177 19.8684 160.668 19.7687 161.231 19.7687C161.743 19.7687 162.186 19.8579 162.562 20.0363C162.948 20.2042 163.246 20.4508 163.454 20.7762C163.674 21.1015 163.783 21.4951 163.783 21.9569C163.783 22.3557 163.684 22.7283 163.486 23.0746C163.298 23.4209 162.985 23.762 162.546 24.0979C162.108 24.4232 161.513 24.7905 160.762 25.1998C160.104 25.5672 159.582 25.903 159.196 26.2074C158.82 26.5117 158.554 26.8108 158.398 27.1047C158.241 27.3881 158.163 27.7029 158.163 28.0492C158.163 28.4481 158.273 28.7996 158.492 29.104C158.721 29.3978 159.034 29.6287 159.431 29.7967C159.838 29.9541 160.303 30.0328 160.824 30.0328C161.555 30.0328 162.207 29.8806 162.781 29.5763C163.355 29.2719 163.835 28.8101 164.222 28.1909C164.618 27.5717 164.905 26.7951 165.083 25.861L165.975 26.1444C165.777 27.1939 165.438 28.0755 164.957 28.7891C164.477 29.5028 163.882 30.0433 163.173 30.4106C162.463 30.7779 161.659 30.9616 160.762 30.9616Z" fill="#DC5151"/>
<path d="M171.845 33.9999C171.094 33.9999 170.373 33.8897 169.685 33.6693C168.996 33.4489 168.437 33.1341 168.009 32.7248L168.573 31.8747C168.959 32.221 169.434 32.4939 169.998 32.6933C170.572 32.9032 171.177 33.0081 171.814 33.0081C172.857 33.0081 173.625 32.7615 174.115 32.2682C174.606 31.7855 174.851 31.0298 174.851 30.0013V27.939L175.007 26.5222L174.898 25.1054V22.6023H175.962V29.8596C175.962 31.287 175.613 32.3312 174.913 32.9924C174.225 33.6641 173.202 33.9999 171.845 33.9999ZM171.641 30.5523C170.859 30.5523 170.154 30.3844 169.528 30.0485C168.902 29.7022 168.406 29.2247 168.041 28.616C167.686 28.0073 167.508 27.3093 167.508 26.5222C167.508 25.7351 167.686 25.0424 168.041 24.4442C168.406 23.8355 168.902 23.3632 169.528 23.0274C170.154 22.6915 170.859 22.5236 171.641 22.5236C172.372 22.5236 173.03 22.6758 173.614 22.9801C174.199 23.2845 174.663 23.7358 175.007 24.334C175.352 24.9322 175.524 25.6616 175.524 26.5222C175.524 27.3828 175.352 28.1122 175.007 28.7104C174.663 29.3086 174.199 29.7652 173.614 30.08C173.03 30.3949 172.372 30.5523 171.641 30.5523ZM171.751 29.5605C172.356 29.5605 172.894 29.4346 173.364 29.1827C173.833 28.9203 174.204 28.5635 174.475 28.1122C174.747 27.6504 174.882 27.1204 174.882 26.5222C174.882 25.924 174.747 25.3992 174.475 24.948C174.204 24.4967 173.833 24.1451 173.364 23.8932C172.894 23.6308 172.356 23.4997 171.751 23.4997C171.156 23.4997 170.619 23.6308 170.139 23.8932C169.669 24.1451 169.298 24.4967 169.027 24.948C168.766 25.3992 168.636 25.924 168.636 26.5222C168.636 27.1204 168.766 27.6504 169.027 28.1122C169.298 28.5635 169.669 28.9203 170.139 29.1827C170.619 29.4346 171.156 29.5605 171.751 29.5605Z" fill="#DC5151"/>
<path d="M181.654 30.9459C180.882 30.9459 180.287 30.736 179.87 30.3162C179.452 29.8964 179.243 29.3034 179.243 28.5373V20.7762H180.355V28.4743C180.355 28.9571 180.475 29.3296 180.715 29.592C180.965 29.8544 181.32 29.9856 181.78 29.9856C182.27 29.9856 182.677 29.8439 183.001 29.5605L183.392 30.3634C183.173 30.5628 182.907 30.7097 182.594 30.8042C182.291 30.8986 181.978 30.9459 181.654 30.9459ZM177.772 23.5311V22.6023H182.86V23.5311H177.772Z" fill="#DC5151"/>
<path d="M185.525 24.2395C185.296 24.2395 185.097 24.1556 184.93 23.9877C184.774 23.8197 184.695 23.6151 184.695 23.3737C184.695 23.1218 184.774 22.9172 184.93 22.7598C185.097 22.6023 185.296 22.5236 185.525 22.5236C185.755 22.5236 185.948 22.6023 186.104 22.7598C186.271 22.9172 186.355 23.1218 186.355 23.3737C186.355 23.6151 186.271 23.8197 186.104 23.9877C185.948 24.1556 185.755 24.2395 185.525 24.2395ZM184.742 33.1656L185.431 30.2532L185.556 30.9301C185.316 30.9301 185.113 30.8514 184.946 30.694C184.789 30.5366 184.711 30.3319 184.711 30.08C184.711 29.8281 184.789 29.6235 184.946 29.4661C185.113 29.3086 185.311 29.2299 185.541 29.2299C185.781 29.2299 185.974 29.3139 186.12 29.4818C186.277 29.6497 186.355 29.8491 186.355 30.08C186.355 30.164 186.35 30.2479 186.339 30.3319C186.329 30.4159 186.308 30.5103 186.277 30.6153C186.245 30.7202 186.204 30.8462 186.151 30.9931L185.494 33.1656H184.742Z" fill="#DC5151"/>
<path d="M190.709 27.5612C190.709 27.1204 190.777 26.7426 190.913 26.4278C191.059 26.1129 191.236 25.8348 191.445 25.5934C191.664 25.352 191.894 25.1264 192.134 24.9165C192.385 24.7066 192.619 24.4967 192.839 24.2868C193.058 24.0664 193.235 23.8302 193.371 23.5784C193.507 23.316 193.574 23.0116 193.574 22.6653C193.574 22.0986 193.355 21.6368 192.917 21.28C192.478 20.9231 191.858 20.7447 191.054 20.7447C190.386 20.7447 189.807 20.8549 189.316 21.0753C188.826 21.2852 188.408 21.6001 188.064 22.0199L187.234 21.3902C187.651 20.8654 188.189 20.4613 188.846 20.178C189.504 19.8946 190.266 19.7529 191.132 19.7529C191.863 19.7529 192.494 19.8631 193.026 20.0835C193.569 20.3039 193.987 20.6188 194.279 21.0281C194.582 21.4374 194.733 21.9254 194.733 22.4921C194.733 22.9434 194.66 23.3317 194.514 23.6571C194.378 23.9719 194.201 24.2553 193.981 24.5072C193.773 24.7486 193.543 24.9794 193.293 25.1998C193.053 25.4097 192.823 25.6249 192.604 25.8453C192.385 26.0657 192.207 26.3123 192.071 26.5852C191.936 26.8581 191.868 27.1834 191.868 27.5612H190.709ZM191.289 30.9459C191.07 30.9459 190.876 30.8672 190.709 30.7097C190.553 30.5418 190.475 30.3476 190.475 30.1273C190.475 29.8964 190.553 29.7075 190.709 29.5605C190.876 29.4031 191.07 29.3244 191.289 29.3244C191.529 29.3244 191.727 29.4031 191.884 29.5605C192.04 29.7075 192.118 29.8964 192.118 30.1273C192.118 30.3476 192.04 30.5418 191.884 30.7097C191.727 30.8672 191.529 30.9459 191.289 30.9459Z" fill="white"/>
<path d="M207.916 28.616L201.106 25.8768V24.8378L207.916 22.0986V23.0746L201.513 25.6091V25.1054L207.916 27.6399V28.616Z" fill="#7E7E7E"/>
<path d="M208.624 32.4414L213.79 17.6119H214.808L209.642 32.4414H208.624Z" fill="#7E7E7E"/>
<path d="M218.011 30.9459C217.228 30.9459 216.524 30.7674 215.898 30.4106C215.282 30.0538 214.796 29.5605 214.442 28.9308C214.087 28.2906 213.909 27.556 213.909 26.7269C213.909 25.8873 214.087 25.1526 214.442 24.5229C214.796 23.8932 215.282 23.4052 215.898 23.0589C216.524 22.702 217.228 22.5236 218.011 22.5236C218.731 22.5236 219.373 22.6863 219.937 23.0116C220.511 23.337 220.965 23.8145 221.299 24.4442C221.643 25.0634 221.815 25.8243 221.815 26.7269C221.815 27.6189 221.648 28.3798 221.314 29.0095C220.98 29.6392 220.526 30.122 219.952 30.4578C219.389 30.7832 218.742 30.9459 218.011 30.9459ZM218.089 29.9541C218.674 29.9541 219.196 29.8229 219.655 29.5605C220.125 29.2877 220.49 28.9098 220.751 28.4271C221.022 27.9338 221.158 27.3671 221.158 26.7269C221.158 26.0762 221.022 25.5094 220.751 25.0267C220.49 24.5439 220.125 24.1713 219.655 23.909C219.196 23.6361 218.674 23.4997 218.089 23.4997C217.515 23.4997 216.999 23.6361 216.539 23.909C216.08 24.1713 215.715 24.5439 215.444 25.0267C215.172 25.5094 215.037 26.0762 215.037 26.7269C215.037 27.3671 215.172 27.9338 215.444 28.4271C215.715 28.9098 216.08 29.2877 216.539 29.5605C216.999 29.8229 217.515 29.9541 218.089 29.9541ZM221.189 30.8672V28.3798L221.299 26.7111L221.142 25.0424V19.1862H222.254V30.8672H221.189Z" fill="#3B61D1"/>
<path d="M225.349 30.8672V22.6023H226.461V30.8672H225.349ZM225.913 20.7762C225.683 20.7762 225.49 20.6975 225.334 20.5401C225.177 20.3826 225.099 20.1937 225.099 19.9733C225.099 19.7529 225.177 19.5693 225.334 19.4223C225.49 19.2649 225.683 19.1862 225.913 19.1862C226.143 19.1862 226.336 19.2597 226.492 19.4066C226.649 19.5535 226.727 19.7372 226.727 19.9576C226.727 20.1885 226.649 20.3826 226.492 20.5401C226.346 20.6975 226.153 20.7762 225.913 20.7762Z" fill="#3B61D1"/>
<path d="M231.667 30.8672L228.019 22.6023H229.178L232.528 30.2689H231.98L235.378 22.6023H236.473L232.81 30.8672H231.667Z" fill="#3B61D1"/>
<path d="M237.585 28.616V27.6399L243.988 25.1054V25.6091L237.585 23.0746V22.0986L244.395 24.8378V25.8768L237.585 28.616Z" fill="#7E7E7E"/>
<path d="M39.5889 47.8022L32.7788 45.063V44.024L39.5889 41.2848V42.2608L33.1858 44.7953V44.2916L39.5889 46.8261V47.8022Z" fill="#7E7E7E"/>
<path d="M45.635 50.1321C44.9357 50.1321 44.3252 50.0009 43.8033 49.7385C43.2815 49.4761 42.8744 49.0826 42.5822 48.5578C42.3004 48.0331 42.1595 47.3771 42.1595 46.59V41.7885H43.271V46.4641C43.271 47.3456 43.485 48.0121 43.9129 48.4634C44.3513 48.9041 44.9618 49.1245 45.7446 49.1245C46.3186 49.1245 46.8144 49.0091 47.2319 48.7782C47.6598 48.5368 47.9833 48.1905 48.2025 47.7392C48.4321 47.2879 48.5469 46.7474 48.5469 46.1177V41.7885H49.6585V50.0534H48.5939V47.7864L48.7661 48.1957C48.5052 48.8044 48.0982 49.282 47.545 49.6283C47.0023 49.9641 46.3656 50.1321 45.635 50.1321Z" fill="#3B61D1"/>
<path d="M52.7563 50.0534V38.3724H53.8679V50.0534H52.7563Z" fill="#3B61D1"/>
<path d="M56.5067 47.8022V46.8261L62.9098 44.2916V44.7953L56.5067 42.2608V41.2848L63.3168 44.024V45.063L56.5067 47.8022Z" fill="#7E7E7E"/>
<path d="M72.3677 66.9884L65.5575 64.2492V63.2102L72.3677 60.471V61.447L65.9646 63.9815V63.4778L72.3677 66.0123V66.9884Z" fill="#7E7E7E"/>
<path d="M75.0165 69.2396V57.5586H76.1281V69.2396H75.0165Z" fill="#3B61D1"/>
<path d="M79.2209 69.2396V60.9747H80.3324V69.2396H79.2209ZM79.7845 59.1486C79.5549 59.1486 79.3618 59.0699 79.2052 58.9125C79.0487 58.755 78.9704 58.5661 78.9704 58.3457C78.9704 58.1253 79.0487 57.9417 79.2052 57.7947C79.3618 57.6373 79.5549 57.5586 79.7845 57.5586C80.0141 57.5586 80.2072 57.6321 80.3638 57.779C80.5203 57.9259 80.5986 58.1096 80.5986 58.33C80.5986 58.5609 80.5203 58.755 80.3638 58.9125C80.2176 59.0699 80.0245 59.1486 79.7845 59.1486Z" fill="#3B61D1"/>
<path d="M82.9713 66.9884V66.0123L89.3744 63.4778V63.9815L82.9713 61.447V60.471L89.7814 63.2102V64.2492L82.9713 66.9884Z" fill="#7E7E7E"/>
<path d="M102.884 66.9884L96.0736 64.2492V63.2102L102.884 60.471V61.447L96.4806 63.9815V63.4778L102.884 66.0123V66.9884Z" fill="#7E7E7E"/>
<path d="M110.683 69.2396V67.4134L110.636 67.1143V64.0603C110.636 63.3571 110.438 62.8166 110.041 62.4388C109.655 62.061 109.076 61.872 108.304 61.872C107.771 61.872 107.265 61.9613 106.785 62.1397C106.305 62.3181 105.898 62.5542 105.564 62.8481L105.063 62.0137C105.48 61.6569 105.981 61.384 106.566 61.1951C107.15 60.9957 107.766 60.896 108.413 60.896C109.478 60.896 110.297 61.1636 110.871 61.6989C111.456 62.2236 111.748 63.0265 111.748 64.1075V69.2396H110.683ZM107.85 69.3183C107.234 69.3183 106.696 69.2186 106.237 69.0192C105.788 68.8093 105.444 68.5259 105.204 68.1691C104.964 67.8017 104.844 67.3819 104.844 66.9097C104.844 66.4794 104.943 66.091 105.141 65.7447C105.35 65.3879 105.684 65.1045 106.143 64.8946C106.613 64.6742 107.239 64.564 108.022 64.564H110.855V65.3984H108.053C107.26 65.3984 106.707 65.5401 106.394 65.8234C106.091 66.1068 105.94 66.4584 105.94 66.8782C105.94 67.3504 106.122 67.7283 106.488 68.0116C106.853 68.295 107.364 68.4367 108.022 68.4367C108.648 68.4367 109.186 68.295 109.634 68.0116C110.094 67.7178 110.428 67.298 110.636 66.7522L110.887 67.5236C110.678 68.0694 110.313 68.5049 109.791 68.8302C109.279 69.1556 108.632 69.3183 107.85 69.3183Z" fill="#3B61D1"/>
<path d="M123.06 60.896C123.728 60.896 124.312 61.0272 124.813 61.2896C125.325 61.5415 125.721 61.9298 126.003 62.4545C126.295 62.9793 126.442 63.6405 126.442 64.4381V69.2396H125.33V64.5483C125.33 63.6772 125.111 63.0213 124.672 62.5805C124.245 62.1292 123.639 61.9035 122.856 61.9035C122.272 61.9035 121.761 62.0242 121.322 62.2656C120.894 62.4965 120.56 62.8376 120.32 63.2889C120.091 63.7297 119.976 64.2649 119.976 64.8946V69.2396H118.864V57.5586H119.976V63.2416L119.757 62.8166C120.018 62.2184 120.435 61.7514 121.009 61.4155C121.583 61.0692 122.267 60.896 123.06 60.896Z" fill="#8698D1"/>
<path d="M129.444 69.2396V60.9747H130.509V63.2259L130.399 62.8323C130.629 62.2026 131.015 61.7251 131.557 61.3998C132.1 61.0639 132.773 60.896 133.577 60.896V61.9822C133.535 61.9822 133.494 61.9822 133.452 61.9822C133.41 61.9718 133.368 61.9665 133.327 61.9665C132.46 61.9665 131.782 62.2341 131.291 62.7694C130.801 63.2941 130.556 64.0445 130.556 65.0206V69.2396H129.444Z" fill="#8698D1"/>
<path d="M139.02 69.3183C138.164 69.3183 137.413 69.1398 136.766 68.783C136.119 68.4157 135.612 67.9172 135.247 67.2875C134.882 66.6473 134.699 65.9179 134.699 65.0993C134.699 64.2807 134.871 63.5565 135.216 62.9268C135.571 62.2971 136.051 61.8038 136.656 61.447C137.272 61.0797 137.961 60.896 138.723 60.896C139.495 60.896 140.179 61.0744 140.773 61.4313C141.379 61.7776 141.854 62.2709 142.198 62.9111C142.542 63.5408 142.715 64.2702 142.715 65.0993C142.715 65.1517 142.709 65.2095 142.699 65.2724C142.699 65.3249 142.699 65.3826 142.699 65.4456H135.544V64.6112H142.104L141.666 64.9418C141.666 64.3436 141.535 63.8136 141.274 63.3518C141.024 62.8796 140.679 62.5122 140.241 62.2499C139.803 61.9875 139.297 61.8563 138.723 61.8563C138.159 61.8563 137.653 61.9875 137.204 62.2499C136.755 62.5122 136.406 62.8796 136.155 63.3518C135.905 63.8241 135.779 64.3646 135.779 64.9733V65.1465C135.779 65.7762 135.915 66.3324 136.186 66.8152C136.468 67.2875 136.854 67.66 137.345 67.9329C137.846 68.1953 138.415 68.3265 139.051 68.3265C139.552 68.3265 140.017 68.2373 140.445 68.0589C140.883 67.8804 141.259 67.6076 141.572 67.2403L142.198 67.9644C141.833 68.4052 141.374 68.741 140.82 68.9719C140.278 69.2028 139.678 69.3183 139.02 69.3183Z" fill="#8698D1"/>
<path d="M145.165 69.2396V59.9357C145.165 59.2011 145.379 58.6081 145.807 58.1568C146.235 57.7055 146.851 57.4799 147.654 57.4799C147.967 57.4799 148.27 57.5219 148.562 57.6058C148.855 57.6898 149.1 57.821 149.298 57.9994L148.922 58.8337C148.766 58.6973 148.583 58.5976 148.374 58.5346C148.166 58.4612 147.941 58.4244 147.701 58.4244C147.232 58.4244 146.871 58.5556 146.621 58.818C146.371 59.0804 146.245 59.4687 146.245 59.9829V61.2423L146.277 61.7618V69.2396H145.165ZM143.693 61.9035V60.9747H148.781V61.9035H143.693Z" fill="#8698D1"/>
<path d="M153.926 62.3758V61.447H160.736V62.3758H153.926ZM153.926 66.0123V65.0835H160.736V66.0123H153.926Z" fill="white"/>
<path d="M166.809 61.3998L167.498 58.5031L167.623 59.1643C167.383 59.1643 167.179 59.0909 167.012 58.9439C166.856 58.7865 166.778 58.5819 166.778 58.33C166.778 58.0781 166.856 57.8734 167.012 57.716C167.179 57.5586 167.378 57.4799 167.607 57.4799C167.847 57.4799 168.04 57.5638 168.187 57.7318C168.343 57.8892 168.421 58.0886 168.421 58.33C168.421 58.4139 168.416 58.4979 168.406 58.5819C168.395 58.6658 168.374 58.7603 168.343 58.8652C168.322 58.9597 168.286 59.0804 168.233 59.2273L167.56 61.3998H166.809Z" fill="#903BD1"/>
<path d="M175.637 69.2396L176.984 58.2198H177.829L176.483 69.2396H175.637ZM169.704 66.2485V65.3826H179.175V66.2485H169.704ZM171.567 69.2396L172.913 58.2198H173.774L172.412 69.2396H171.567ZM170.205 62.0767V61.2109H179.676V62.0767H170.205Z" fill="#903BD1"/>
<path d="M181.027 61.3998L181.716 58.5031L181.841 59.1643C181.601 59.1643 181.398 59.0909 181.231 58.9439C181.074 58.7865 180.996 58.5819 180.996 58.33C180.996 58.0781 181.074 57.8734 181.231 57.716C181.398 57.5586 181.596 57.4799 181.826 57.4799C182.066 57.4799 182.259 57.5638 182.405 57.7318C182.561 57.8892 182.64 58.0886 182.64 58.33C182.64 58.4139 182.635 58.4979 182.624 58.5819C182.614 58.6658 182.593 58.7603 182.561 58.8652C182.541 58.9597 182.504 59.0804 182.452 59.2273L181.779 61.3998H181.027Z" fill="#903BD1"/>
<path d="M184.564 66.9884V66.0123L190.967 63.4778V63.9815L184.564 61.447V60.471L191.374 63.2102V64.2492L184.564 66.9884Z" fill="white"/>
<path d="M194.258 69.2396V58.2198H198.36C199.288 58.2198 200.087 58.372 200.755 58.6763C201.423 58.9702 201.934 59.4005 202.289 59.9672C202.654 60.5234 202.837 61.2004 202.837 61.998C202.837 62.7746 202.654 63.4463 202.289 64.013C201.934 64.5693 201.423 64.9996 200.755 65.3039C200.087 65.6083 199.288 65.7604 198.36 65.7604H194.9L195.416 65.2095V69.2396H194.258ZM195.416 65.3039L194.9 64.7372H198.328C199.424 64.7372 200.254 64.5011 200.818 64.0288C201.392 63.546 201.679 62.8691 201.679 61.998C201.679 61.1164 201.392 60.4342 200.818 59.9515C200.254 59.4687 199.424 59.2273 198.328 59.2273H194.9L195.416 58.6763V65.3039Z" fill="white"/>
<path d="M204.909 69.2396V60.9747H205.973V63.2259L205.863 62.8323C206.093 62.2026 206.479 61.7251 207.022 61.3998C207.565 61.0639 208.238 60.896 209.042 60.896V61.9822C209 61.9822 208.958 61.9822 208.916 61.9822C208.875 61.9718 208.833 61.9665 208.791 61.9665C207.925 61.9665 207.246 62.2341 206.756 62.7694C206.265 63.2941 206.02 64.0445 206.02 65.0206V69.2396H204.909Z" fill="white"/>
<path d="M214.344 69.3183C213.55 69.3183 212.836 69.1398 212.199 68.783C211.573 68.4157 211.077 67.9172 210.712 67.2875C210.346 66.6473 210.164 65.9179 210.164 65.0993C210.164 64.2702 210.346 63.5408 210.712 62.9111C211.077 62.2814 211.573 61.7881 212.199 61.4313C212.825 61.0744 213.54 60.896 214.344 60.896C215.158 60.896 215.878 61.0744 216.504 61.4313C217.141 61.7881 217.637 62.2814 217.991 62.9111C218.357 63.5408 218.539 64.2702 218.539 65.0993C218.539 65.9179 218.357 66.6473 217.991 67.2875C217.637 67.9172 217.141 68.4157 216.504 68.783C215.867 69.1398 215.147 69.3183 214.344 69.3183ZM214.344 68.3265C214.939 68.3265 215.466 68.1953 215.925 67.9329C216.384 67.66 216.744 67.2822 217.005 66.7995C217.276 66.3062 217.412 65.7395 217.412 65.0993C217.412 64.4486 217.276 63.8818 217.005 63.3991C216.744 62.9163 216.384 62.5437 215.925 62.2814C215.466 62.0085 214.944 61.872 214.359 61.872C213.775 61.872 213.253 62.0085 212.794 62.2814C212.335 62.5437 211.969 62.9163 211.698 63.3991C211.427 63.8818 211.291 64.4486 211.291 65.0993C211.291 65.7395 211.427 66.3062 211.698 66.7995C211.969 67.2822 212.335 67.66 212.794 67.9329C213.253 68.1953 213.77 68.3265 214.344 68.3265Z" fill="white"/>
<path d="M219.588 72.3723C219.254 72.3723 218.935 72.3251 218.633 72.2306C218.319 72.1467 218.059 72.0155 217.85 71.8371L218.241 70.987C218.575 71.2703 219.003 71.412 219.525 71.412C219.963 71.412 220.297 71.2808 220.527 71.0185C220.767 70.7561 220.887 70.3678 220.887 69.8535V60.9747H221.998V69.8535C221.998 70.6196 221.79 71.2284 221.372 71.6796C220.965 72.1414 220.37 72.3723 219.588 72.3723ZM221.451 59.1486C221.221 59.1486 221.028 59.0699 220.871 58.9125C220.715 58.755 220.636 58.5661 220.636 58.3457C220.636 58.1253 220.715 57.9417 220.871 57.7947C221.028 57.6373 221.221 57.5586 221.451 57.5586C221.68 57.5586 221.873 57.6321 222.03 57.779C222.186 57.9259 222.265 58.1096 222.265 58.33C222.265 58.5609 222.186 58.755 222.03 58.9125C221.884 59.0699 221.691 59.1486 221.451 59.1486Z" fill="white"/>
<path d="M228.596 69.3183C227.74 69.3183 226.989 69.1398 226.342 68.783C225.694 68.4157 225.188 67.9172 224.823 67.2875C224.458 66.6473 224.275 65.9179 224.275 65.0993C224.275 64.2807 224.447 63.5565 224.792 62.9268C225.146 62.2971 225.627 61.8038 226.232 61.447C226.848 61.0797 227.537 60.896 228.298 60.896C229.071 60.896 229.754 61.0744 230.349 61.4313C230.955 61.7776 231.43 62.2709 231.774 62.9111C232.118 63.5408 232.291 64.2702 232.291 65.0993C232.291 65.1517 232.285 65.2095 232.275 65.2724C232.275 65.3249 232.275 65.3826 232.275 65.4456H225.12V64.6112H231.68L231.242 64.9418C231.242 64.3436 231.111 63.8136 230.85 63.3518C230.6 62.8796 230.255 62.5122 229.817 62.2499C229.379 61.9875 228.873 61.8563 228.298 61.8563C227.735 61.8563 227.229 61.9875 226.78 62.2499C226.331 62.5122 225.981 62.8796 225.731 63.3518C225.48 63.8241 225.355 64.3646 225.355 64.9733V65.1465C225.355 65.7762 225.491 66.3324 225.762 66.8152C226.044 67.2875 226.43 67.66 226.921 67.9329C227.422 68.1953 227.991 68.3265 228.627 68.3265C229.128 68.3265 229.593 68.2373 230.021 68.0589C230.459 67.8804 230.835 67.6076 231.148 67.2403L231.774 67.9644C231.409 68.4052 230.949 68.741 230.396 68.9719C229.854 69.2028 229.253 69.3183 228.596 69.3183Z" fill="white"/>
<path d="M237.966 69.3183C237.152 69.3183 236.421 69.1398 235.774 68.783C235.138 68.4157 234.637 67.9172 234.271 67.2875C233.906 66.6473 233.723 65.9179 233.723 65.0993C233.723 64.2702 233.906 63.5408 234.271 62.9111C234.637 62.2814 235.138 61.7881 235.774 61.4313C236.421 61.0744 237.152 60.896 237.966 60.896C238.665 60.896 239.297 61.0324 239.86 61.3053C240.424 61.5782 240.868 61.9875 241.191 62.5332L240.361 63.1C240.08 62.6802 239.73 62.3706 239.312 62.1712C238.895 61.9718 238.441 61.872 237.95 61.872C237.366 61.872 236.839 62.0085 236.369 62.2814C235.899 62.5437 235.529 62.9163 235.258 63.3991C234.986 63.8818 234.851 64.4486 234.851 65.0993C234.851 65.75 234.986 66.3167 235.258 66.7995C235.529 67.2822 235.899 67.66 236.369 67.9329C236.839 68.1953 237.366 68.3265 237.95 68.3265C238.441 68.3265 238.895 68.2268 239.312 68.0274C239.73 67.828 240.08 67.5236 240.361 67.1143L241.191 67.681C240.868 68.2163 240.424 68.6256 239.86 68.909C239.297 69.1818 238.665 69.3183 237.966 69.3183Z" fill="white"/>
<path d="M246.065 69.3183C245.293 69.3183 244.698 69.1084 244.28 68.6886C243.863 68.2688 243.654 67.6758 243.654 66.9097V59.1486H244.766V66.8467C244.766 67.3295 244.886 67.702 245.126 67.9644C245.376 68.2268 245.731 68.358 246.19 68.358C246.681 68.358 247.088 68.2163 247.412 67.9329L247.803 68.7358C247.584 68.9352 247.318 69.0821 247.005 69.1766C246.702 69.271 246.389 69.3183 246.065 69.3183ZM242.183 61.9035V60.9747H247.271V61.9035H242.183Z" fill="white"/>
<path d="M252.034 69.3183C251.355 69.3183 250.714 69.2238 250.108 69.0349C249.503 68.8355 249.028 68.5889 248.684 68.295L249.185 67.4134C249.519 67.6653 249.946 67.8857 250.468 68.0746C250.99 68.253 251.538 68.3422 252.112 68.3422C252.895 68.3422 253.459 68.2215 253.803 67.9801C254.147 67.7283 254.32 67.3977 254.32 66.9884C254.32 66.684 254.22 66.4479 254.022 66.28C253.834 66.1015 253.584 65.9703 253.271 65.8864C252.958 65.7919 252.608 65.7132 252.222 65.6503C251.836 65.5873 251.449 65.5138 251.063 65.4299C250.687 65.3459 250.343 65.2252 250.03 65.0678C249.717 64.8999 249.461 64.6742 249.263 64.3909C249.075 64.1075 248.981 63.7297 248.981 63.2574C248.981 62.8061 249.106 62.402 249.357 62.0452C249.607 61.6884 249.973 61.4103 250.453 61.2109C250.943 61.001 251.538 60.896 252.237 60.896C252.77 60.896 253.302 60.9695 253.834 61.1164C254.367 61.2528 254.805 61.4365 255.149 61.6674L254.664 62.5647C254.299 62.3128 253.907 62.1344 253.49 62.0295C253.072 61.914 252.655 61.8563 252.237 61.8563C251.496 61.8563 250.948 61.9875 250.594 62.2499C250.249 62.5018 250.077 62.8271 250.077 63.2259C250.077 63.5408 250.171 63.7874 250.359 63.9658C250.557 64.1442 250.813 64.2859 251.126 64.3909C251.449 64.4853 251.799 64.564 252.175 64.627C252.561 64.69 252.942 64.7687 253.318 64.8631C253.704 64.9471 254.053 65.0678 254.367 65.2252C254.69 65.3721 254.946 65.5873 255.134 65.8706C255.332 66.1435 255.431 66.5056 255.431 66.9569C255.431 67.4397 255.295 67.8595 255.024 68.2163C254.763 68.5626 254.377 68.8355 253.866 69.0349C253.365 69.2238 252.754 69.3183 252.034 69.3183Z" fill="white"/>
<path d="M263.827 66.9884L257.017 64.2492V63.2102L263.827 60.471V61.447L257.424 63.9815V63.4778L263.827 66.0123V66.9884Z" fill="#7E7E7E"/>
<path d="M264.534 70.8138L269.701 55.9843H270.718L265.552 70.8138H264.534Z" fill="#7E7E7E"/>
<path d="M275.8 69.2396V67.4134L275.753 67.1143V64.0603C275.753 63.3571 275.555 62.8166 275.158 62.4388C274.772 62.061 274.193 61.872 273.421 61.872C272.888 61.872 272.382 61.9613 271.902 62.1397C271.422 62.3181 271.015 62.5542 270.681 62.8481L270.18 62.0137C270.597 61.6569 271.098 61.384 271.683 61.1951C272.267 60.9957 272.883 60.896 273.53 60.896C274.595 60.896 275.414 61.1636 275.988 61.6989C276.573 62.2236 276.865 63.0265 276.865 64.1075V69.2396H275.8ZM272.967 69.3183C272.351 69.3183 271.813 69.2186 271.354 69.0192C270.905 68.8093 270.561 68.5259 270.321 68.1691C270.081 67.8017 269.961 67.3819 269.961 66.9097C269.961 66.4794 270.06 66.091 270.258 65.7447C270.467 65.3879 270.801 65.1045 271.26 64.8946C271.73 64.6742 272.356 64.564 273.139 64.564H275.972V65.3984H273.17C272.377 65.3984 271.824 65.5401 271.511 65.8234C271.208 66.1068 271.057 66.4584 271.057 66.8782C271.057 67.3504 271.239 67.7283 271.604 68.0116C271.97 68.295 272.481 68.4367 273.139 68.4367C273.765 68.4367 274.302 68.295 274.751 68.0116C275.21 67.7178 275.544 67.298 275.753 66.7522L276.004 67.5236C275.795 68.0694 275.43 68.5049 274.908 68.8302C274.396 69.1556 273.749 69.3183 272.967 69.3183Z" fill="#3B61D1"/>
<path d="M279.43 66.9884V66.0123L285.833 63.4778V63.9815L279.43 61.447V60.471L286.24 63.2102V64.2492L279.43 66.9884Z" fill="#7E7E7E"/>
<path d="M299.342 66.9884L292.532 64.2492V63.2102L299.342 60.471V61.447L292.939 63.9815V63.4778L299.342 66.0123V66.9884Z" fill="#7E7E7E"/>
<path d="M300.05 70.8138L305.216 55.9843H306.234L301.067 70.8138H300.05Z" fill="#7E7E7E"/>
<path d="M307.235 69.2396V57.5586H308.347V69.2396H307.235Z" fill="#3B61D1"/>
<path d="M311.439 69.2396V60.9747H312.551V69.2396H311.439ZM312.003 59.1486C311.773 59.1486 311.58 59.0699 311.424 58.9125C311.267 58.755 311.189 58.5661 311.189 58.3457C311.189 58.1253 311.267 57.9417 311.424 57.7947C311.58 57.6373 311.773 57.5586 312.003 57.5586C312.233 57.5586 312.426 57.6321 312.582 57.779C312.739 57.9259 312.817 58.1096 312.817 58.33C312.817 58.5609 312.739 58.755 312.582 58.9125C312.436 59.0699 312.243 59.1486 312.003 59.1486Z" fill="#3B61D1"/>
<path d="M315.19 66.9884V66.0123L321.593 63.4778V63.9815L315.19 61.447V60.471L322 63.2102V64.2492L315.19 66.9884Z" fill="#7E7E7E"/>
<path d="M72.3677 86.1746L65.5575 83.4354V82.3964L72.3677 79.6572V80.6332L65.9646 83.1677V82.664L72.3677 85.1985V86.1746Z" fill="#7E7E7E"/>
<path d="M75.0165 88.4257V76.7448H76.1281V88.4257H75.0165Z" fill="#3B61D1"/>
<path d="M79.2209 88.4257V80.1609H80.3324V88.4257H79.2209ZM79.7845 78.3348C79.5549 78.3348 79.3618 78.2561 79.2052 78.0987C79.0487 77.9412 78.9704 77.7523 78.9704 77.5319C78.9704 77.3115 79.0487 77.1279 79.2052 76.9809C79.3618 76.8235 79.5549 76.7448 79.7845 76.7448C80.0141 76.7448 80.2072 76.8183 80.3638 76.9652C80.5203 77.1121 80.5986 77.2958 80.5986 77.5162C80.5986 77.7471 80.5203 77.9412 80.3638 78.0987C80.2176 78.2561 80.0245 78.3348 79.7845 78.3348Z" fill="#3B61D1"/>
<path d="M82.9713 86.1746V85.1985L89.3744 82.664V83.1677L82.9713 80.6332V79.6572L89.7814 82.3964V83.4354L82.9713 86.1746Z" fill="#7E7E7E"/>
<path d="M102.884 86.1746L96.0736 83.4354V82.3964L102.884 79.6572V80.6332L96.4806 83.1677V82.664L102.884 85.1985V86.1746Z" fill="#7E7E7E"/>
<path d="M110.683 88.4257V86.5996L110.636 86.3005V83.2465C110.636 82.5433 110.438 82.0028 110.041 81.625C109.655 81.2472 109.076 81.0582 108.304 81.0582C107.771 81.0582 107.265 81.1475 106.785 81.3259C106.305 81.5043 105.898 81.7404 105.564 82.0343L105.063 81.1999C105.48 80.8431 105.981 80.5702 106.566 80.3813C107.15 80.1819 107.766 80.0822 108.413 80.0822C109.478 80.0822 110.297 80.3498 110.871 80.8851C111.456 81.4098 111.748 82.2127 111.748 83.2937V88.4257H110.683ZM107.85 88.5045C107.234 88.5045 106.696 88.4048 106.237 88.2054C105.788 87.9955 105.444 87.7121 105.204 87.3553C104.964 86.9879 104.844 86.5681 104.844 86.0959C104.844 85.6656 104.943 85.2772 105.141 84.9309C105.35 84.5741 105.684 84.2907 106.143 84.0808C106.613 83.8604 107.239 83.7502 108.022 83.7502H110.855V84.5846H108.053C107.26 84.5846 106.707 84.7263 106.394 85.0096C106.091 85.293 105.94 85.6446 105.94 86.0644C105.94 86.5366 106.122 86.9145 106.488 87.1978C106.853 87.4812 107.364 87.6229 108.022 87.6229C108.648 87.6229 109.186 87.4812 109.634 87.1978C110.094 86.904 110.428 86.4842 110.636 85.9384L110.887 86.7098C110.678 87.2556 110.313 87.6911 109.791 88.0164C109.279 88.3418 108.632 88.5045 107.85 88.5045Z" fill="#3B61D1"/>
<path d="M123.06 80.0822C123.728 80.0822 124.312 80.2134 124.813 80.4758C125.325 80.7277 125.721 81.116 126.003 81.6407C126.295 82.1655 126.442 82.8267 126.442 83.6243V88.4257H125.33V83.7345C125.33 82.8634 125.111 82.2075 124.672 81.7667C124.245 81.3154 123.639 81.0897 122.856 81.0897C122.272 81.0897 121.761 81.2104 121.322 81.4518C120.894 81.6827 120.56 82.0238 120.32 82.4751C120.091 82.9159 119.976 83.4511 119.976 84.0808V88.4257H118.864V76.7448H119.976V82.4278L119.757 82.0028C120.018 81.4046 120.435 80.9376 121.009 80.6017C121.583 80.2554 122.267 80.0822 123.06 80.0822Z" fill="#8698D1"/>
<path d="M129.444 88.4257V80.1609H130.509V82.4121L130.399 82.0185C130.629 81.3888 131.015 80.9113 131.557 80.586C132.1 80.2501 132.773 80.0822 133.577 80.0822V81.1684C133.535 81.1684 133.494 81.1684 133.452 81.1684C133.41 81.158 133.368 81.1527 133.327 81.1527C132.46 81.1527 131.782 81.4203 131.291 81.9556C130.801 82.4803 130.556 83.2307 130.556 84.2068V88.4257H129.444Z" fill="#8698D1"/>
<path d="M139.02 88.5045C138.164 88.5045 137.413 88.326 136.766 87.9692C136.119 87.6019 135.612 87.1034 135.247 86.4737C134.882 85.8335 134.699 85.1041 134.699 84.2855C134.699 83.4669 134.871 82.7427 135.216 82.113C135.571 81.4833 136.051 80.99 136.656 80.6332C137.272 80.2659 137.961 80.0822 138.723 80.0822C139.495 80.0822 140.179 80.2606 140.773 80.6175C141.379 80.9638 141.854 81.4571 142.198 82.0973C142.542 82.727 142.715 83.4564 142.715 84.2855C142.715 84.3379 142.709 84.3957 142.699 84.4586C142.699 84.5111 142.699 84.5688 142.699 84.6318H135.544V83.7974H142.104L141.666 84.128C141.666 83.5298 141.535 82.9998 141.274 82.538C141.024 82.0658 140.679 81.6984 140.241 81.4361C139.803 81.1737 139.297 81.0425 138.723 81.0425C138.159 81.0425 137.653 81.1737 137.204 81.4361C136.755 81.6984 136.406 82.0658 136.155 82.538C135.905 83.0103 135.779 83.5508 135.779 84.1595V84.3327C135.779 84.9624 135.915 85.5186 136.186 86.0014C136.468 86.4737 136.854 86.8462 137.345 87.1191C137.846 87.3815 138.415 87.5127 139.051 87.5127C139.552 87.5127 140.017 87.4235 140.445 87.2451C140.883 87.0666 141.259 86.7938 141.572 86.4265L142.198 87.1506C141.833 87.5914 141.374 87.9272 140.82 88.1581C140.278 88.389 139.678 88.5045 139.02 88.5045Z" fill="#8698D1"/>
<path d="M145.165 88.4257V79.1219C145.165 78.3873 145.379 77.7943 145.807 77.343C146.235 76.8917 146.851 76.6661 147.654 76.6661C147.967 76.6661 148.27 76.7081 148.562 76.792C148.855 76.876 149.1 77.0072 149.298 77.1856L148.922 78.0199C148.766 77.8835 148.583 77.7838 148.374 77.7208C148.166 77.6474 147.941 77.6106 147.701 77.6106C147.232 77.6106 146.871 77.7418 146.621 78.0042C146.371 78.2666 146.245 78.6549 146.245 79.1691V80.4285L146.277 80.9481V88.4257H145.165ZM143.693 81.0897V80.1609H148.781V81.0897H143.693Z" fill="#8698D1"/>
<path d="M153.926 81.562V80.6332H160.736V81.562H153.926ZM153.926 85.1985V84.2697H160.736V85.1985H153.926Z" fill="white"/>
<path d="M166.809 80.586L167.498 77.6893L167.623 78.3505C167.383 78.3505 167.179 78.2771 167.012 78.1301C166.856 77.9727 166.778 77.7681 166.778 77.5162C166.778 77.2643 166.856 77.0597 167.012 76.9022C167.179 76.7448 167.378 76.6661 167.607 76.6661C167.847 76.6661 168.04 76.75 168.187 76.918C168.343 77.0754 168.421 77.2748 168.421 77.5162C168.421 77.6001 168.416 77.6841 168.406 77.7681C168.395 77.852 168.374 77.9465 168.343 78.0514C168.322 78.1459 168.286 78.2666 168.233 78.4135L167.56 80.586H166.809Z" fill="#903BD1"/>
<path d="M175.637 88.4257L176.984 77.406H177.829L176.483 88.4257H175.637ZM169.704 85.4347V84.5688H179.175V85.4347H169.704ZM171.567 88.4257L172.913 77.406H173.774L172.412 88.4257H171.567ZM170.205 81.2629V80.3971H179.676V81.2629H170.205Z" fill="#903BD1"/>
<path d="M181.027 80.586L181.716 77.6893L181.841 78.3505C181.601 78.3505 181.398 78.2771 181.231 78.1301C181.074 77.9727 180.996 77.7681 180.996 77.5162C180.996 77.2643 181.074 77.0597 181.231 76.9022C181.398 76.7448 181.596 76.6661 181.826 76.6661C182.066 76.6661 182.259 76.75 182.405 76.918C182.561 77.0754 182.64 77.2748 182.64 77.5162C182.64 77.6001 182.635 77.6841 182.624 77.7681C182.614 77.852 182.593 77.9465 182.561 78.0514C182.541 78.1459 182.504 78.2666 182.452 78.4135L181.779 80.586H181.027Z" fill="#903BD1"/>
<path d="M184.564 86.1746V85.1985L190.967 82.664V83.1677L184.564 80.6332V79.6572L191.374 82.3964V83.4354L184.564 86.1746Z" fill="white"/>
<path d="M197.279 88.5202C196.465 88.5202 195.683 88.389 194.931 88.1266C194.19 87.8538 193.616 87.5074 193.209 87.0876L193.663 86.1903C194.049 86.5681 194.566 86.8882 195.213 87.1506C195.87 87.4025 196.559 87.5284 197.279 87.5284C197.968 87.5284 198.527 87.4445 198.955 87.2765C199.393 87.0981 199.711 86.862 199.909 86.5681C200.118 86.2743 200.223 85.9489 200.223 85.5921C200.223 85.1618 200.097 84.8155 199.847 84.5531C199.607 84.2907 199.288 84.0861 198.892 83.9391C198.495 83.7817 198.057 83.6453 197.577 83.5298C197.097 83.4144 196.617 83.2937 196.137 83.1677C195.656 83.0313 195.213 82.8529 194.806 82.6325C194.409 82.4121 194.086 82.1235 193.835 81.7667C193.595 81.3993 193.475 80.9218 193.475 80.3341C193.475 79.7884 193.616 79.2898 193.898 78.8385C194.19 78.3768 194.634 78.0094 195.228 77.7366C195.823 77.4532 196.585 77.3115 197.514 77.3115C198.13 77.3115 198.741 77.4007 199.346 77.5791C199.951 77.7471 200.473 77.9832 200.911 78.2876L200.52 79.2164C200.05 78.9015 199.549 78.6706 199.017 78.5237C198.495 78.3768 197.989 78.3033 197.499 78.3033C196.841 78.3033 196.298 78.3925 195.87 78.5709C195.442 78.7493 195.124 78.9907 194.915 79.2951C194.717 79.5889 194.618 79.9248 194.618 80.3026C194.618 80.7329 194.738 81.0792 194.978 81.3416C195.228 81.604 195.552 81.8086 195.949 81.9556C196.356 82.1025 196.799 82.2337 197.279 82.3491C197.759 82.4646 198.234 82.5905 198.704 82.727C199.184 82.8634 199.622 83.0418 200.019 83.2622C200.426 83.4721 200.75 83.7555 200.99 84.1123C201.24 84.4691 201.365 84.9362 201.365 85.5134C201.365 86.0486 201.219 86.5471 200.927 87.0089C200.635 87.4602 200.186 87.8275 199.581 88.1109C198.986 88.3838 198.219 88.5202 197.279 88.5202Z" fill="white"/>
<path d="M204.532 86.2848L204.563 84.8522L209.682 80.1609H211.044L207.428 83.64L206.802 84.1753L204.532 86.2848ZM203.655 88.4257V76.7448H204.766V88.4257H203.655ZM210.027 88.4257L206.598 84.128L207.318 83.2622L211.389 88.4257H210.027Z" fill="white"/>
<path d="M213.057 88.4257V80.1609H214.169V88.4257H213.057ZM213.621 78.3348C213.391 78.3348 213.198 78.2561 213.042 78.0987C212.885 77.9412 212.807 77.7523 212.807 77.5319C212.807 77.3115 212.885 77.1279 213.042 76.9809C213.198 76.8235 213.391 76.7448 213.621 76.7448C213.851 76.7448 214.044 76.8183 214.2 76.9652C214.357 77.1121 214.435 77.2958 214.435 77.5162C214.435 77.7471 214.357 77.9412 214.2 78.0987C214.054 78.2561 213.861 78.3348 213.621 78.3348Z" fill="white"/>
<path d="M217.262 88.4257V76.7448H218.373V88.4257H217.262Z" fill="white"/>
<path d="M221.466 88.4257V76.7448H222.578V88.4257H221.466Z" fill="white"/>
<path d="M227.878 88.5045C227.199 88.5045 226.558 88.41 225.952 88.2211C225.347 88.0217 224.872 87.7751 224.528 87.4812L225.029 86.5996C225.363 86.8515 225.79 87.0719 226.312 87.2608C226.834 87.4392 227.382 87.5284 227.956 87.5284C228.739 87.5284 229.303 87.4077 229.647 87.1663C229.991 86.9145 230.164 86.5839 230.164 86.1746C230.164 85.8702 230.064 85.6341 229.866 85.4662C229.678 85.2877 229.428 85.1565 229.115 85.0726C228.802 84.9781 228.452 84.8994 228.066 84.8365C227.68 84.7735 227.293 84.7 226.907 84.6161C226.531 84.5321 226.187 84.4114 225.874 84.254C225.561 84.0861 225.305 83.8604 225.107 83.5771C224.919 83.2937 224.825 82.9159 224.825 82.4436C224.825 81.9923 224.95 81.5882 225.201 81.2314C225.451 80.8746 225.817 80.5965 226.297 80.3971C226.787 80.1872 227.382 80.0822 228.081 80.0822C228.614 80.0822 229.146 80.1557 229.678 80.3026C230.211 80.439 230.649 80.6227 230.993 80.8536L230.508 81.7509C230.143 81.499 229.751 81.3206 229.334 81.2157C228.916 81.1002 228.499 81.0425 228.081 81.0425C227.34 81.0425 226.792 81.1737 226.438 81.4361C226.093 81.6879 225.921 82.0133 225.921 82.4121C225.921 82.727 226.015 82.9736 226.203 83.152C226.401 83.3304 226.657 83.4721 226.97 83.5771C227.293 83.6715 227.643 83.7502 228.019 83.8132C228.405 83.8762 228.786 83.9549 229.162 84.0493C229.548 84.1333 229.897 84.254 230.211 84.4114C230.534 84.5583 230.79 84.7735 230.978 85.0568C231.176 85.3297 231.275 85.6918 231.275 86.1431C231.275 86.6259 231.139 87.0457 230.868 87.4025C230.607 87.7488 230.221 88.0217 229.71 88.2211C229.209 88.41 228.598 88.5045 227.878 88.5045Z" fill="white"/>
<path d="M239.671 86.1746L232.861 83.4354V82.3964L239.671 79.6572V80.6332L233.268 83.1677V82.664L239.671 85.1985V86.1746Z" fill="#7E7E7E"/>
<path d="M240.378 90L245.545 75.1705H246.562L241.396 90H240.378Z" fill="#7E7E7E"/>
<path d="M251.644 88.4257V86.5996L251.597 86.3005V83.2465C251.597 82.5433 251.399 82.0028 251.002 81.625C250.616 81.2472 250.037 81.0582 249.265 81.0582C248.732 81.0582 248.226 81.1475 247.746 81.3259C247.266 81.5043 246.859 81.7404 246.525 82.0343L246.024 81.1999C246.441 80.8431 246.942 80.5702 247.527 80.3813C248.111 80.1819 248.727 80.0822 249.374 80.0822C250.439 80.0822 251.258 80.3498 251.832 80.8851C252.417 81.4098 252.709 82.2127 252.709 83.2937V88.4257H251.644ZM248.811 88.5045C248.195 88.5045 247.657 88.4048 247.198 88.2054C246.749 87.9955 246.405 87.7121 246.165 87.3553C245.925 86.9879 245.805 86.5681 245.805 86.0959C245.805 85.6656 245.904 85.2772 246.102 84.9309C246.311 84.5741 246.645 84.2907 247.104 84.0808C247.574 83.8604 248.2 83.7502 248.983 83.7502H251.816V84.5846H249.014C248.221 84.5846 247.668 84.7263 247.355 85.0096C247.052 85.293 246.901 85.6446 246.901 86.0644C246.901 86.5366 247.083 86.9145 247.448 87.1978C247.814 87.4812 248.325 87.6229 248.983 87.6229C249.609 87.6229 250.146 87.4812 250.595 87.1978C251.054 86.904 251.388 86.4842 251.597 85.9384L251.848 86.7098C251.639 87.2556 251.274 87.6911 250.752 88.0164C250.24 88.3418 249.593 88.5045 248.811 88.5045Z" fill="#3B61D1"/>
<path d="M255.274 86.1746V85.1985L261.677 82.664V83.1677L255.274 80.6332V79.6572L262.084 82.3964V83.4354L255.274 86.1746Z" fill="#7E7E7E"/>
<path d="M275.186 86.1746L268.376 83.4354V82.3964L275.186 79.6572V80.6332L268.783 83.1677V82.664L275.186 85.1985V86.1746Z" fill="#7E7E7E"/>
<path d="M275.894 90L281.06 75.1705H282.078L276.911 90H275.894Z" fill="#7E7E7E"/>
<path d="M283.079 88.4257V76.7448H284.191V88.4257H283.079Z" fill="#3B61D1"/>
<path d="M287.283 88.4257V80.1609H288.395V88.4257H287.283ZM287.847 78.3348C287.617 78.3348 287.424 78.2561 287.268 78.0987C287.111 77.9412 287.033 77.7523 287.033 77.5319C287.033 77.3115 287.111 77.1279 287.268 76.9809C287.424 76.8235 287.617 76.7448 287.847 76.7448C288.077 76.7448 288.27 76.8183 288.426 76.9652C288.583 77.1121 288.661 77.2958 288.661 77.5162C288.661 77.7471 288.583 77.9412 288.426 78.0987C288.28 78.2561 288.087 78.3348 287.847 78.3348Z" fill="#3B61D1"/>
<path d="M291.034 86.1746V85.1985L297.437 82.664V83.1677L291.034 80.6332V79.6572L297.844 82.3964V83.4354L291.034 86.1746Z" fill="#7E7E7E"/>
</svg>
