<svg width="22" height="22" viewBox="0 0 22 22" fill="none" xmlns="http://www.w3.org/2000/svg">
<path fill-rule="evenodd" clip-rule="evenodd" d="M11 14.6667C13.025 14.6667 14.6667 13.025 14.6667 11C14.6667 8.97496 13.025 7.33333 11 7.33333C8.97496 7.33333 7.33333 8.97496 7.33333 11C7.33333 13.025 8.97496 14.6667 11 14.6667ZM11 16.1333C13.8351 16.1333 16.1333 13.8351 16.1333 11C16.1333 8.16494 13.8351 5.86667 11 5.86667C8.16494 5.86667 5.86667 8.16494 5.86667 11C5.86667 13.8351 8.16494 16.1333 11 16.1333Z" fill="#903BD1"/>
<path d="M10.2667 0.733333C10.2667 0.328325 10.595 0 11 0C11.405 0 11.7333 0.328325 11.7333 0.733333V3.66667C11.7333 4.07168 11.405 4.4 11 4.4C10.595 4.4 10.2667 4.07168 10.2667 3.66667V0.733333Z" fill="#903BD1"/>
<path d="M3.22182 4.25892C2.93543 3.97253 2.93543 3.50821 3.22182 3.22183C3.5082 2.93544 3.97252 2.93544 4.25891 3.22183L6.33309 5.29601C6.61947 5.58239 6.61947 6.04671 6.33309 6.3331C6.0467 6.61948 5.58238 6.61948 5.296 6.3331L3.22182 4.25892Z" fill="#903BD1"/>
<path d="M21.2667 10.2667C21.6717 10.2667 22 10.595 22 11C22 11.405 21.6717 11.7333 21.2667 11.7333H18.3333C17.9283 11.7333 17.6 11.405 17.6 11C17.6 10.595 17.9283 10.2667 18.3333 10.2667H21.2667Z" fill="#903BD1"/>
<path d="M17.7411 3.22183C18.0275 2.93544 18.4918 2.93544 18.7782 3.22183C19.0645 3.50821 19.0645 3.97253 18.7782 4.25892L16.704 6.3331C16.4176 6.61948 15.9533 6.61948 15.6669 6.3331C15.3805 6.04671 15.3805 5.58239 15.6669 5.29601L17.7411 3.22183Z" fill="#903BD1"/>
<path d="M10.2667 18.3333C10.2667 17.9283 10.595 17.6 11 17.6C11.405 17.6 11.7333 17.9283 11.7333 18.3333V21.2667C11.7333 21.6717 11.405 22 11 22C10.595 22 10.2667 21.6717 10.2667 21.2667V18.3333Z" fill="#903BD1"/>
<path d="M15.6669 16.704C15.3805 16.4176 15.3805 15.9533 15.6669 15.6669C15.9533 15.3805 16.4176 15.3805 16.704 15.6669L18.7782 17.7411C19.0646 18.0275 19.0646 18.4918 18.7782 18.7782C18.4918 19.0646 18.0275 19.0646 17.7411 18.7782L15.6669 16.704Z" fill="#903BD1"/>
<path d="M3.66667 10.2667C4.07168 10.2667 4.4 10.595 4.4 11C4.4 11.405 4.07168 11.7333 3.66667 11.7333H0.733333C0.328325 11.7333 -1.77035e-08 11.405 0 11C1.77035e-08 10.595 0.328325 10.2667 0.733333 10.2667H3.66667Z" fill="#903BD1"/>
<path d="M5.29602 15.6669C5.58241 15.3805 6.04673 15.3805 6.33311 15.6669C6.6195 15.9533 6.6195 16.4176 6.33311 16.704L4.25893 18.7782C3.97255 19.0646 3.50823 19.0646 3.22184 18.7782C2.93546 18.4918 2.93546 18.0275 3.22184 17.7411L5.29602 15.6669Z" fill="#903BD1"/>
</svg>
